<svg width="34" height="34" viewBox="0 0 34 34" fill="none" xmlns="http://www.w3.org/2000/svg">
<path d="M21.3638 33C20.5605 33 19.9093 32.3178 19.9093 31.4762C19.9093 30.6346 20.5605 29.9524 21.3638 29.9524C22.1671 29.9524 22.8184 30.6346 22.8184 31.4762C22.8184 32.3178 22.1671 33 21.3638 33Z" fill="black" stroke="black" stroke-width="1.8" stroke-linecap="round" stroke-linejoin="round"/>
<path d="M5.36357 33C4.56025 33 3.90902 32.3178 3.90902 31.4762C3.90902 30.6346 4.56025 29.9524 5.36357 29.9524C6.16689 29.9524 6.81812 30.6346 6.81812 31.4762C6.81812 32.3178 6.16689 33 5.36357 33Z" fill="black" stroke="black" stroke-width="1.8" stroke-linecap="round" stroke-linejoin="round"/>
<path d="M33 1H27.1818L23.2836 21.4038C23.1506 22.1054 22.7863 22.7356 22.2545 23.1841C21.7226 23.6326 21.0572 23.8708 20.3745 23.8571H6.23636C5.55374 23.8708 4.88826 23.6326 4.35643 23.1841C3.82459 22.7356 3.46028 22.1054 3.32727 21.4038L0.999999 8.61905H25.7273" stroke="black" stroke-width="1.8" stroke-linecap="round" stroke-linejoin="round"/>
</svg>
