<svg width="187" height="46" viewBox="0 0 187 46" fill="none" xmlns="http://www.w3.org/2000/svg">
<rect y="-14" width="187" height="60" rx="15" fill="#828282"/>
<path d="M31 35.7926V6.29418L36.2623 13.0706L42.1867 24.3619L44.4171 29.3803H44.5565C44.4636 28.1722 44.3358 26.8247 44.1732 25.3377C44.0106 23.8508 43.9292 22.4336 43.9292 21.0861L42.6166 6.29431L48.8082 9.19846V35.7926H43.5459L37.6214 24.4665L35.3911 19.5178H35.2517C35.3678 20.7724 35.4956 22.1199 35.635 23.5604C35.7976 25.0009 35.879 26.3948 35.879 27.7424V35.7926H31ZM54.1764 35.7926V9.19846L60.0414 6.29431L59.2993 31.4713H68.2905V35.7926H54.1764ZM72.2138 35.7926V13.0706H79.9853C82.3318 13.0706 83.5886 13.2486 85.1917 14.0386C86.818 14.8285 91 4.11026 91 6.29418C91 7.31643 88.082 20.726 87.5477 21.6785C87.0366 22.6311 86.3163 23.2816 85.387 23.6301V23.7695C86.5254 24.0715 87.4896 24.664 88.2795 25.5468C89.0695 26.4065 89.4644 27.5913 89.4644 29.1015C89.4644 31.4248 88.6048 33.1208 86.8855 34.1896C85.1895 35.2583 83.1102 35.7926 80.6474 35.7926H72.2138ZM77.3367 22.1664H79.7414C80.9959 22.1664 81.902 21.9225 82.4596 21.4346C83.0405 20.9467 83.3309 20.2961 83.3309 19.483C83.3309 17.8567 82.146 17.0435 79.7762 17.0435H77.3367V22.1664ZM77.3367 31.8198H80.2293C83.0405 31.8198 84.4461 30.7975 84.4461 28.753C84.4461 26.8944 83.0405 25.965 80.2293 25.965H77.3367V31.8198Z" fill="black"/>
<path d="M97.156 36.216C95.572 36.216 94.288 35.676 93.304 34.596C92.32 33.504 91.828 31.998 91.828 30.078C91.828 28.158 92.32 26.676 93.304 25.632C94.288 24.576 95.572 24.048 97.156 24.048C98.74 24.048 100.024 24.576 101.008 25.632C101.992 26.688 102.484 28.17 102.484 30.078C102.484 31.998 101.992 33.504 101.008 34.596C100.024 35.676 98.74 36.216 97.156 36.216ZM97.156 33.93C97.96 33.93 98.596 33.582 99.064 32.886C99.532 32.19 99.766 31.254 99.766 30.078C99.766 28.914 99.532 28.002 99.064 27.342C98.596 26.67 97.96 26.334 97.156 26.334C96.352 26.334 95.716 26.67 95.248 27.342C94.78 28.002 94.546 28.914 94.546 30.078C94.546 31.254 94.78 32.19 95.248 32.886C95.716 33.582 96.352 33.93 97.156 33.93ZM109.317 36.216C107.793 36.216 106.629 35.766 105.825 34.866C105.021 33.966 104.619 32.532 104.619 30.564V24.264H107.283V30.834C107.283 31.986 107.457 32.79 107.805 33.246C108.153 33.702 108.657 33.93 109.317 33.93C109.977 33.93 110.487 33.702 110.847 33.246C111.207 32.79 111.387 31.986 111.387 30.834V24.264H113.943V30.564C113.943 32.532 113.547 33.966 112.755 34.866C111.975 35.766 110.829 36.216 109.317 36.216ZM118.947 36V26.496H115.725V24.264H124.833V26.496H121.611V36H118.947ZM126.663 36V24.264H129.309V36H126.663ZM140.717 39.276C139.469 39.276 138.413 38.976 137.549 38.376C136.697 37.776 136.061 37.014 135.641 36.09C134.393 35.826 133.391 35.172 132.635 34.128C131.891 33.084 131.519 31.734 131.519 30.078C131.519 28.158 132.011 26.676 132.995 25.632C133.979 24.576 135.263 24.048 136.847 24.048C138.431 24.048 139.715 24.576 140.699 25.632C141.683 26.688 142.175 28.17 142.175 30.078C142.175 31.65 141.833 32.952 141.149 33.984C140.477 35.004 139.577 35.676 138.449 36C138.713 36.42 139.085 36.714 139.565 36.882C140.045 37.062 140.531 37.152 141.023 37.152C141.275 37.152 141.509 37.134 141.725 37.098C141.953 37.062 142.151 37.014 142.319 36.954L142.787 38.88C142.571 38.988 142.283 39.078 141.923 39.15C141.563 39.234 141.161 39.276 140.717 39.276ZM136.847 34.056C137.651 34.056 138.287 33.708 138.755 33.012C139.223 32.304 139.457 31.326 139.457 30.078C139.457 28.914 139.223 28.002 138.755 27.342C138.287 26.67 137.651 26.334 136.847 26.334C136.043 26.334 135.407 26.67 134.939 27.342C134.471 28.002 134.237 28.914 134.237 30.078C134.237 31.326 134.471 32.304 134.939 33.012C135.407 33.708 136.043 34.056 136.847 34.056ZM149.008 36.216C147.484 36.216 146.32 35.766 145.516 34.866C144.712 33.966 144.31 32.532 144.31 30.564V24.264H146.974V30.834C146.974 31.986 147.148 32.79 147.496 33.246C147.844 33.702 148.348 33.93 149.008 33.93C149.668 33.93 150.178 33.702 150.538 33.246C150.898 32.79 151.078 31.986 151.078 30.834V24.264H153.634V30.564C153.634 32.532 153.238 33.966 152.446 34.866C151.666 35.766 150.52 36.216 149.008 36.216ZM156.353 36V24.264H163.697V26.496H158.999V28.854H162.995V31.068H158.999V33.768H163.877V36H156.353Z" fill="black"/>
</svg>
