<svg width="24" height="25" viewBox="0 0 24 25" fill="none" xmlns="http://www.w3.org/2000/svg">
<circle cx="10" cy="10" r="8.5" stroke="#65758D" stroke-opacity="0.5" stroke-width="3"/>
<path d="M22.0262 22.2928C22.0625 22.3389 22.0855 22.373 22.0995 22.3958C22.0598 23.2761 21.4217 23.9152 20.6975 23.9922C20.6874 23.983 20.6762 23.9725 20.6639 23.9605C20.5287 23.8286 20.3505 23.6036 20.138 23.277C19.7174 22.6307 19.26 21.7397 18.8294 20.8112C18.6485 20.4213 18.4751 20.0307 18.3139 19.657C18.6053 19.8241 18.9063 20.0009 19.2068 20.1835C20.0365 20.6875 20.8319 21.2171 21.409 21.6948C21.6996 21.9354 21.9034 22.1372 22.0262 22.2928ZM20.7685 24.0483C20.7685 24.0486 20.7653 24.0469 20.7587 24.0424C20.7652 24.0458 20.7685 24.048 20.7685 24.0483Z" stroke="#65758D" stroke-opacity="0.5" stroke-width="2"/>
</svg>
